# xmcd CD database file
#
# Track frame offsets:
#	150
#	18130
#	35357
#	48792
#	70327
#	89877
#	113897
#	139492
#	165132
#	188097
#	210792
#	234995
#	254505
#	281080
#	300510
#	325107
#
# Disc length: 4605 seconds
#
# Revision: 3
# Processed by: cddbd v1.5.2PL0 Copyright (c) Steve Scherf et al.
# Submitted via: CDex 1.70beta2
#
DISCID=d311fb10
DTITLE=沢田聖子 - History - 元気になれるDISC
DYEAR=1998
DGENRE=Pop
TTITLE0=キャンパススケッチ
TTITLE1=バクの夢
TTITLE2=卒業
TTITLE3=走って下さい
TTITLE4=ボヘミアン
TTITLE5=Don't forget forever
TTITLE6=Natural
TTITLE7=LIFE
TTITLE8=明日を変えたい
TTITLE9=友達
TTITLE10=乗り越えて行けるね
TTITLE11=笑顔が好きだから
TTITLE12=せつなさを抱きしめて
TTITLE13=smile
TTITLE14=PRESENT
TTITLE15=悲しみはいつの日も
EXTD=YEAR: 1998
EXTT0=
EXTT1=
EXTT2=
EXTT3=
EXTT4=
EXTT5=
EXTT6=
EXTT7=
EXTT8=
EXTT9=
EXTT10=
EXTT11=
EXTT12=
EXTT13=
EXTT14=
EXTT15=
PLAYORDER=
